<svg width="36" height="40" viewBox="0 0 36 40" fill="none" xmlns="http://www.w3.org/2000/svg">
<path d="M21.0758 36.2061C20.7632 36.7517 20.3146 37.2046 19.7749 37.5194C19.2351 37.8343 18.6231 38 18.0002 38C17.3773 38 16.7654 37.8343 16.2256 37.5194C15.6859 37.2046 15.2372 36.7517 14.9247 36.2061M28.6669 12.8019C28.6669 9.93707 27.5431 7.18956 25.5427 5.16381C23.5423 3.13806 20.8292 2 18.0002 2C15.1713 2 12.4582 3.13806 10.4578 5.16381C8.45738 7.18956 7.33358 9.93707 7.33358 12.8019C7.33358 25.4041 2.00024 29.0048 2.00024 29.0048H34.0002C34.0002 29.0048 28.6669 25.4041 28.6669 12.8019Z" stroke="white" stroke-width="4" stroke-linecap="round" stroke-linejoin="round"/>
</svg>
